<svg xmlns="http://www.w3.org/2000/svg" width="19.755" height="35.5" viewBox="0 0 19.755 35.5">
  <g id="Group_127" data-name="Group 127" transform="translate(-112 -255.25)">
    <path id="Path_34" data-name="Path 34" d="M121.877,1197.313a66.945,66.945,0,0,0-3.44-6.937c-.187-1.375-.375-4.875,3.813-5.125,1.313.125,4.375,2.625,3.188,5.125S121.877,1197.313,121.877,1197.313Z" transform="translate(0 -930)" fill="#b124a3"/>
    <g id="between" transform="translate(106.835 267.422)">
      <path id="Path_18" data-name="Path 18" d="M4.125,13.337a.415.415,0,0,1-.371-.229L.356,6.3.347,6.283a4.125,4.125,0,1,1,7.9-1.658A4.1,4.1,0,0,1,7.9,6.283L7.894,6.3,4.5,13.108a.415.415,0,0,1-.371.229ZM1.1,5.94l3.022,6.053L7.147,5.94A3.3,3.3,0,1,0,.83,4.625,3.273,3.273,0,0,0,1.1,5.94Zm0,0" transform="translate(11 6.078)"/>
      <path id="Path_20" data-name="Path 20" d="M47.693,50.436A2.239,2.239,0,1,1,49.932,48.2,2.242,2.242,0,0,1,47.693,50.436Zm0-3.649A1.41,1.41,0,1,0,49.1,48.2,1.411,1.411,0,0,0,47.693,46.787Zm0,0" transform="translate(-32.568 -37.493)"/>
      <path id="Path_22" data-name="Path 22" d="M58.021,340.012a2.15,2.15,0,1,1,2.15-2.15A2.153,2.153,0,0,1,58.021,340.012Zm0-3.313a1.163,1.163,0,1,0,1.163,1.163A1.165,1.165,0,0,0,58.021,336.7Zm0,0" transform="translate(-50.707 -316.683)"/>
      <path id="Path_23" data-name="Path 23" d="M371.143,340.012a2.15,2.15,0,1,1,2.15-2.15A2.153,2.153,0,0,1,371.143,340.012Zm0-3.313a1.163,1.163,0,1,0,1.163,1.163A1.165,1.165,0,0,0,371.143,336.7Zm0,0" transform="translate(-348.374 -316.683)"/>
      <path id="Path_24" data-name="Path 24" d="M135.642,370.264h-4.1a.494.494,0,0,1,0-.987h4.1a.494.494,0,1,1,0,.987Zm-8.045,0h-4.1a.494.494,0,1,1,0-.987h4.1a.494.494,0,0,1,0,.987Zm0,0" transform="translate(-114.53 -348.592)"/>
      <path id="Path_25" data-name="Path 25" d="M246.494,370.264a.494.494,0,1,0-.494-.494A.495.495,0,0,0,246.494,370.264Zm0,0" transform="translate(-231.452 -348.592)" fill-rule="evenodd"/>
      <path id="Path_35" data-name="Path 35" d="M58.021,336.7a1.163,1.163,0,1,0,1.163,1.163A1.165,1.165,0,0,0,58.021,336.7Zm0,0" transform="translate(-50.707 -316.683)" fill="#b124a3"/>
      <path id="Path_36" data-name="Path 36" d="M371.143,336.7a1.163,1.163,0,1,0,1.163,1.163A1.165,1.165,0,0,0,371.143,336.7Zm0,0" transform="translate(-348.374 -316.683)" fill="#b124a3"/>
    </g>
  </g>
</svg>
