<svg xmlns="http://www.w3.org/2000/svg" width="18" height="20.945" viewBox="0 0 18 20.945">
  <g id="Group_8" data-name="Group 8" transform="translate(-1068 -27)">
    <path id="notification_1_" data-name="notification (1)" d="M8.845,2.663a.736.736,0,1,1,.736.736A.737.737,0,0,1,8.845,2.663ZM3.854,16.491V10.763a5.727,5.727,0,0,1,11.455,0v5.727Zm0,0" transform="translate(1067.419 26.709)" fill="#ecf0f5"/>
    <path id="Path_9" data-name="Path 9" d="M5.4,2A2.66,2.66,0,0,1,2.7,3.818C1.223,3.832,0,3,0,2,1.772,2.028,3.966,2.014,5.4,2Z" transform="translate(1074.488 42.712)" fill="#ecf0f5"/>
    <path id="notification_1_2" data-name="notification (1)" d="M17.181,16.2h-.818V10.473a7.376,7.376,0,0,0-5.237-7.05,2.373,2.373,0,1,0-4.254,0,7.376,7.376,0,0,0-5.237,7.05V16.2H.818a.818.818,0,1,0,0,1.636H4.995a3.934,3.934,0,0,0,3.841,3.109h.327A3.934,3.934,0,0,0,13,17.836h4.177a.818.818,0,1,0,0-1.636ZM8.263,2.373A.736.736,0,1,1,9,3.109.737.737,0,0,1,8.263,2.373Zm.9,16.936H8.836A2.3,2.3,0,0,1,6.7,17.836H11.3a2.3,2.3,0,0,1-2.14,1.473ZM3.272,16.2V10.473a5.727,5.727,0,0,1,11.455,0V16.2Zm0,0" transform="translate(1068 27)" fill="#636363"/>
  </g>
</svg>
