<svg xmlns="http://www.w3.org/2000/svg" width="21.45" height="21.45" viewBox="0 0 21.45 21.45">
  <g id="Group_22" data-name="Group 22" transform="translate(-25.75 -373.75)">
    <g id="settings" transform="translate(63 394.999)">
      <g id="Group_10" data-name="Group 10" transform="translate(4 -17.999)">
        <path id="Path_12" data-name="Path 12" d="M19.777,11.4a.113.113,0,0,1-.1.114l-1.838.306a.588.588,0,0,0-.473.433,7.006,7.006,0,0,1-.762,1.834.592.592,0,0,0,.026.643l1.081,1.523a.119.119,0,0,1-.013.149l-1.3,1.3a.111.111,0,0,1-.083.035.108.108,0,0,1-.066-.022l-1.519-1.081a.591.591,0,0,0-.643-.026,7.006,7.006,0,0,1-1.834.762.581.581,0,0,0-.433.473l-.311,1.838a.113.113,0,0,1-.114.1H9.554a.113.113,0,0,1-.114-.1l-.306-1.838a.588.588,0,0,0-.433-.473,7.275,7.275,0,0,1-1.794-.735.606.606,0,0,0-.3-.079.576.576,0,0,0-.341.109l-1.532,1.09a.13.13,0,0,1-.066.022.117.117,0,0,1-.083-.035l-1.3-1.3a.119.119,0,0,1-.013-.149l1.077-1.51a.6.6,0,0,0,.026-.648A6.94,6.94,0,0,1,3.6,12.3a.6.6,0,0,0-.473-.433l-1.851-.315a.113.113,0,0,1-.1-.114V9.6a.113.113,0,0,1,.1-.114L3.1,9.178a.592.592,0,0,0,.477-.438A7,7,0,0,1,4.328,6.9.584.584,0,0,0,4.3,6.264L3.208,4.732a.119.119,0,0,1,.013-.149l1.3-1.3a.111.111,0,0,1,.083-.035.107.107,0,0,1,.066.022l1.51,1.077a.6.6,0,0,0,.648.026A6.94,6.94,0,0,1,8.661,3.6a.6.6,0,0,0,.433-.473l.315-1.851a.113.113,0,0,1,.114-.1h1.842a.113.113,0,0,1,.114.1L11.786,3.1a.592.592,0,0,0,.438.477,7.1,7.1,0,0,1,1.877.77.592.592,0,0,0,.643-.026l1.51-1.085a.13.13,0,0,1,.066-.022.117.117,0,0,1,.083.035l1.3,1.3a.119.119,0,0,1,.013.149L16.639,6.22a.591.591,0,0,0-.026.643A7.006,7.006,0,0,1,17.375,8.7a.581.581,0,0,0,.473.433l1.838.311a.113.113,0,0,1,.1.114V11.4Z" transform="translate(-41 -3.001)" fill="#ecf0f5"/>
      </g>
    </g>
    <g id="settings-2" data-name="settings" transform="translate(26 373.999)">
      <g id="Group_10-2" data-name="Group 10" transform="translate(0 0.001)">
        <path id="Path_12-2" data-name="Path 12" d="M19.878,8.277l-1.47-.249A8.3,8.3,0,0,0,17.817,6.6l.867-1.212a1.29,1.29,0,0,0-.14-1.667l-1.3-1.3a1.285,1.285,0,0,0-.915-.381,1.272,1.272,0,0,0-.748.241l-1.217.867a8.217,8.217,0,0,0-1.479-.608l-.245-1.453A1.293,1.293,0,0,0,11.357,0H9.514A1.293,1.293,0,0,0,8.236,1.082L7.983,2.57a8.1,8.1,0,0,0-1.422.6L5.357,2.3a1.293,1.293,0,0,0-1.667.14l-1.309,1.3a1.3,1.3,0,0,0-.14,1.667l.875,1.23a8.11,8.11,0,0,0-.582,1.431l-1.453.245A1.293,1.293,0,0,0,0,9.6v1.842a1.293,1.293,0,0,0,1.081,1.278l1.488.254a8.1,8.1,0,0,0,.6,1.422l-.862,1.2a1.29,1.29,0,0,0,.14,1.667l1.3,1.3a1.285,1.285,0,0,0,.915.381,1.272,1.272,0,0,0,.748-.241l1.23-.875a8.279,8.279,0,0,0,1.383.569l.245,1.47a1.293,1.293,0,0,0,1.278,1.081H11.4a1.293,1.293,0,0,0,1.278-1.081l.249-1.47a8.3,8.3,0,0,0,1.427-.591l1.212.867a1.285,1.285,0,0,0,.753.241h0a1.285,1.285,0,0,0,.915-.381l1.3-1.3a1.3,1.3,0,0,0,.14-1.667l-.867-1.217A8.244,8.244,0,0,0,18.4,12.92l1.47-.245A1.293,1.293,0,0,0,20.95,11.4V9.555A1.277,1.277,0,0,0,19.878,8.277Zm-.1,3.12a.113.113,0,0,1-.1.114l-1.838.306a.588.588,0,0,0-.473.433,7.006,7.006,0,0,1-.762,1.834.592.592,0,0,0,.026.643l1.081,1.523a.119.119,0,0,1-.013.149l-1.3,1.3a.111.111,0,0,1-.083.035.108.108,0,0,1-.066-.022l-1.519-1.081a.591.591,0,0,0-.643-.026,7.006,7.006,0,0,1-1.834.762.581.581,0,0,0-.433.473l-.311,1.838a.113.113,0,0,1-.114.1H9.554a.113.113,0,0,1-.114-.1l-.306-1.838a.588.588,0,0,0-.433-.473,7.275,7.275,0,0,1-1.794-.735.606.606,0,0,0-.3-.079.576.576,0,0,0-.341.109l-1.532,1.09a.13.13,0,0,1-.066.022.117.117,0,0,1-.083-.035l-1.3-1.3a.119.119,0,0,1-.013-.149l1.077-1.51a.6.6,0,0,0,.026-.648A6.94,6.94,0,0,1,3.6,12.3a.6.6,0,0,0-.473-.433l-1.851-.315a.113.113,0,0,1-.1-.114V9.6a.113.113,0,0,1,.1-.114L3.1,9.178a.592.592,0,0,0,.477-.438A7,7,0,0,1,4.328,6.9.584.584,0,0,0,4.3,6.264L3.208,4.732a.119.119,0,0,1,.013-.149l1.3-1.3a.111.111,0,0,1,.083-.035.107.107,0,0,1,.066.022l1.51,1.077a.6.6,0,0,0,.648.026A6.94,6.94,0,0,1,8.661,3.6a.6.6,0,0,0,.433-.473l.315-1.851a.113.113,0,0,1,.114-.1h1.842a.113.113,0,0,1,.114.1L11.786,3.1a.592.592,0,0,0,.438.477,7.1,7.1,0,0,1,1.877.77.592.592,0,0,0,.643-.026l1.51-1.085a.13.13,0,0,1,.066-.022.117.117,0,0,1,.083.035l1.3,1.3a.119.119,0,0,1,.013.149L16.639,6.22a.591.591,0,0,0-.026.643A7.006,7.006,0,0,1,17.375,8.7a.581.581,0,0,0,.473.433l1.838.311a.113.113,0,0,1,.1.114V11.4Z" transform="translate(0 -0.001)" fill="#636363" stroke="#636363" stroke-width="0.5"/>
        <path id="Path_13" data-name="Path 13" d="M140.621,136a4.521,4.521,0,1,0,4.521,4.521A4.524,4.524,0,0,0,140.621,136Zm0,7.86a3.339,3.339,0,1,1,3.339-3.339A3.341,3.341,0,0,1,140.621,143.861Z" transform="translate(-130.144 -130.049)" fill="#636363" stroke="#636363" stroke-width="0.5"/>
      </g>
    </g>
  </g>
</svg>
