<svg xmlns="http://www.w3.org/2000/svg" width="15.83" height="15.829" viewBox="0 0 15.83 15.829">
  <g id="magnifying-glass" opacity="0.39">
    <path id="Path_1" data-name="Path 1" d="M15.478,13.759,12.215,10.5a6.515,6.515,0,0,0,1.18-3.8,6.578,6.578,0,0,0-.528-2.6A6.559,6.559,0,0,0,9.3.531a6.675,6.675,0,0,0-5.2,0A6.558,6.558,0,0,0,.528,4.1a6.674,6.674,0,0,0,0,5.2A6.56,6.56,0,0,0,4.1,12.869a6.581,6.581,0,0,0,2.6.528,6.515,6.515,0,0,0,3.8-1.18l3.263,3.253a1.13,1.13,0,0,0,.856.361,1.218,1.218,0,0,0,.866-2.074ZM9.708,9.711A4.1,4.1,0,0,1,6.7,10.962,4.1,4.1,0,0,1,3.686,9.711,4.1,4.1,0,0,1,2.435,6.7,4.1,4.1,0,0,1,3.686,3.689,4.1,4.1,0,0,1,6.7,2.438,4.105,4.105,0,0,1,9.708,3.689,4.1,4.1,0,0,1,10.959,6.7,4.1,4.1,0,0,1,9.708,9.711Z" transform="translate(0 -0.003)"/>
  </g>
</svg>
